<?xml version="1.0" encoding="utf-8"?>
<!-- Generator: Adobe Illustrator 14.0.0, SVG Export Plug-In . SVG Version: 6.00 Build 43363)  -->
<!DOCTYPE svg PUBLIC "-//W3C//DTD SVG 1.1//EN" "http://www.w3.org/Graphics/SVG/1.1/DTD/svg11.dtd">
<svg version="1.1" id="Layer_1" xmlns="http://www.w3.org/2000/svg" xmlns:xlink="http://www.w3.org/1999/xlink" x="0px" y="0px"
	 width="175px" height="155.5px" viewBox="0 0 135 155.5" enable-background="new 0 0 112 155.5" xml:space="preserve">

<g>
	<path fill="#F29F05" d="M125.59,97.896l0,1.743l-0.059,3.036c-0.123,1.242-0.364,2.479-0.726,3.705
		c-0.845,3.088-1.875,6.166-3.063,9.151c-1.312,3.318-2.721,6.157-3.856,7.778c-2.829,3.961-5.563,6.483-8.299,7.688l-27.519,10.738
		c0.017-9.706,0.096-47.36,0.146-66.286l8.827-0.001c1.08,0.058,2.076,0.53,2.829,1.355c1.183,1.239,2.17,2.643,2.953,4.208
		c1.309,2.459,2.215,5.782,2.694,9.878c0.027,4.146,0.076,12.555,0.076,12.555l0.009,1.491h5.087l-0.386-63.712h-5.086l0.01,1.51
		c0,0,0.054,8.34,0.076,12.442c-0.582,5.779-1.945,9.904-4.055,12.264c-0.638,0.716-1.372,1.341-2.219,1.881
		c-0.62,0.421-1.34,0.673-2.086,0.732H82.25c0.029-9.462,0.089-19.119,0.149-28.772c0.059-9.404,0.117-18.804,0.147-28.016
		l24.658,9.633c3.244,1.418,6.932,5.571,9.178,10.334c1.687,3.559,3.502,9.376,3.502,13.725l-0.105,9.182h5.092l0.323-29.008l0-0.07
		l-0.005-0.07c-0.126-1.527-1.077-2.858-2.532-3.495L72.095,3.521v147.812l55.754-21.986c1.245-0.486,2.073-1.663,2.109-3
		l0.753-28.491L125.59,97.896z"/>
	<path fill="#F29F05" d="M8.651,27.045l-0.005,0.07l0.324,29.078h5.085l-0.098-9.167c-0.005-4.346,1.81-10.169,3.497-13.741
		c2.253-4.766,5.943-8.918,9.129-10.31l24.708-9.671c0.03,9.21,0.089,18.61,0.149,28.013c0.061,9.653,0.123,19.311,0.152,28.773
		h-8.691c-0.746-0.059-1.467-0.312-2.12-0.754c-0.81-0.519-1.543-1.149-2.188-1.883c-2.107-2.356-3.471-6.481-4.053-12.261
		c0.022-4.102,0.076-12.441,0.076-12.441l0.01-1.51h-5.086l-0.385,63.711h5.054l0.009-1.491c0,0,0.049-8.407,0.076-12.554
		c0.479-4.096,1.385-7.419,2.711-9.913c0.765-1.53,1.752-2.934,2.958-4.198c0.729-0.8,1.726-1.272,2.725-1.329h8.907
		c0.05,18.925,0.13,56.58,0.146,66.286l-27.461-10.714c-2.794-1.229-5.528-3.751-8.349-7.7c-1.143-1.633-2.551-4.472-3.865-7.793
		c-1.187-2.982-2.217-6.061-3.07-9.178c-0.354-1.199-0.596-2.438-0.718-3.682l-0.081-3.018v-1.804l-5.115,0.067l0.752,28.461
		c0.039,1.329,0.861,2.504,2.097,2.994c5.115,2.026,53.766,21.191,53.766,21.191l2.05,0.808V3.576L11.132,23.572
		C9.728,24.187,8.777,25.518,8.651,27.045z"/>
</g>
</svg>
