<?xml version="1.0" encoding="utf-8"?>
<!-- Generator: Adobe Illustrator 14.0.0, SVG Export Plug-In . SVG Version: 6.00 Build 43363)  -->
<!DOCTYPE svg PUBLIC "-//W3C//DTD SVG 1.1//EN" "http://www.w3.org/Graphics/SVG/1.1/DTD/svg11.dtd">
<svg version="1.1" id="Layer_1" xmlns="http://www.w3.org/2000/svg" xmlns:xlink="http://www.w3.org/1999/xlink" x="0px" y="0px"
	 width="612px" height="155.5px" viewBox="0 0 612 155.5" enable-background="new 0 0 612 155.5" xml:space="preserve">
<polygon fill="#FFFFFF" points="247.391,92.458 227.772,55.964 220.134,55.964 220.134,99.094 220.562,99.094 225.659,99.094 
	225.659,63.915 244.478,99.094 249.822,99.094 268.75,64.019 268.75,99.094 274.538,99.094 274.538,55.964 267.168,55.964 "/>
<polygon fill="#FFFFFF" points="173.752,79.268 198.884,79.268 198.884,73.907 173.752,73.907 173.752,61.5 203.878,61.5 
	203.878,55.964 167.964,55.964 167.964,99.094 168.386,99.094 204.519,99.094 204.519,93.674 173.752,93.674 "/>
<path fill="#FFFFFF" d="M327.611,58.904c-2.693-2.059-6.455-2.935-10.836-2.935h-24.092v43.124h5.738V81.441h18.332
	c4.227,0,7.983-0.865,10.715-2.907c2.732-2.042,4.381-5.279,4.381-9.801C331.85,64.21,330.311,60.963,327.611,58.904z
	 M316.935,76.136h-18.491V61.445h18.491c3.285,0,5.585,0.8,7.063,2.092c1.479,1.292,2.189,3.116,2.189,5.311
	c0,2.196-0.7,3.976-2.189,5.246C322.509,75.364,320.22,76.136,316.935,76.136z"/>
<polygon fill="#FFFFFF" points="362.621,75.342 345.763,55.964 338.798,55.964 359.648,80.259 359.648,99.094 360.075,99.094 
	365.441,99.094 365.441,80.259 386.396,55.964 379.59,55.964 "/>
<path fill="#FFFFFF" d="M435.642,76.25c1.72-2.004,2.585-4.643,2.585-7.748c0-4.057-1.32-7.239-3.866-9.357
	c-2.546-2.119-6.253-3.176-10.95-3.176h-26.255v43.124h5.787V80.927h19.832l9.67,18.167h6.324L428.66,80.056
	C431.672,79.427,434.032,78.123,435.642,76.25z M402.942,61.467h20.353c3.153,0,5.476,0.701,6.948,1.928
	c1.473,1.226,2.239,2.967,2.245,5.245c0.005,2.278-0.75,3.932-2.24,5.109c-1.489,1.177-3.794,1.834-6.953,1.834h-20.353V61.467z"/>
<polygon fill="#FFFFFF" points="460.216,79.268 485.348,79.268 485.348,73.907 460.216,73.907 460.216,61.5 490.342,61.5 
	490.342,55.964 454.428,55.964 454.428,99.094 454.85,99.094 490.982,99.094 490.982,93.674 460.216,93.674 "/>
<path fill="#FFFFFF" d="M524.289,55.51l-21.135,43.584h5.886l5.848-11.996h24.382l5.848,11.996h6.259L530.241,55.51H524.289z
	 M536.784,81.901h-19.466l9.736-19.914L536.784,81.901z"/>
<polygon fill="#FFFFFF" points="601.378,55.964 601.378,90.569 571.076,55.964 565.037,55.964 565.037,99.094 565.464,99.094 
	570.617,99.094 570.617,63.75 601.559,99.094 606.957,99.094 606.957,55.964 "/>
<g>
	<path fill="#F29F05" d="M125.59,97.896l0,1.743l-0.059,3.036c-0.123,1.242-0.364,2.479-0.726,3.705
		c-0.845,3.088-1.875,6.166-3.063,9.151c-1.312,3.318-2.721,6.157-3.856,7.778c-2.829,3.961-5.563,6.483-8.299,7.688l-27.519,10.738
		c0.017-9.706,0.096-47.36,0.146-66.286l8.827-0.001c1.08,0.058,2.076,0.53,2.829,1.355c1.183,1.239,2.17,2.643,2.953,4.208
		c1.309,2.459,2.215,5.782,2.694,9.878c0.027,4.146,0.076,12.555,0.076,12.555l0.009,1.491h5.087l-0.386-63.712h-5.086l0.01,1.51
		c0,0,0.054,8.34,0.076,12.442c-0.582,5.779-1.945,9.904-4.055,12.264c-0.638,0.716-1.372,1.341-2.219,1.881
		c-0.62,0.421-1.34,0.673-2.086,0.732H82.25c0.029-9.462,0.089-19.119,0.149-28.772c0.059-9.404,0.117-18.804,0.147-28.016
		l24.658,9.633c3.244,1.418,6.932,5.571,9.178,10.334c1.687,3.559,3.502,9.376,3.502,13.725l-0.105,9.182h5.092l0.323-29.008l0-0.07
		l-0.005-0.07c-0.126-1.527-1.077-2.858-2.532-3.495L72.095,3.521v147.812l55.754-21.986c1.245-0.486,2.073-1.663,2.109-3
		l0.753-28.491L125.59,97.896z"/>
	<path fill="#F29F05" d="M8.651,27.045l-0.005,0.07l0.324,29.078h5.085l-0.098-9.167c-0.005-4.346,1.81-10.169,3.497-13.741
		c2.253-4.766,5.943-8.918,9.129-10.31l24.708-9.671c0.03,9.21,0.089,18.61,0.149,28.013c0.061,9.653,0.123,19.311,0.152,28.773
		h-8.691c-0.746-0.059-1.467-0.312-2.12-0.754c-0.81-0.519-1.543-1.149-2.188-1.883c-2.107-2.356-3.471-6.481-4.053-12.261
		c0.022-4.102,0.076-12.441,0.076-12.441l0.01-1.51h-5.086l-0.385,63.711h5.054l0.009-1.491c0,0,0.049-8.407,0.076-12.554
		c0.479-4.096,1.385-7.419,2.711-9.913c0.765-1.53,1.752-2.934,2.958-4.198c0.729-0.8,1.726-1.272,2.725-1.329h8.907
		c0.05,18.925,0.13,56.58,0.146,66.286l-27.461-10.714c-2.794-1.229-5.528-3.751-8.349-7.7c-1.143-1.633-2.551-4.472-3.865-7.793
		c-1.187-2.982-2.217-6.061-3.07-9.178c-0.354-1.199-0.596-2.438-0.718-3.682l-0.081-3.018v-1.804l-5.115,0.067l0.752,28.461
		c0.039,1.329,0.861,2.504,2.097,2.994c5.115,2.026,53.766,21.191,53.766,21.191l2.05,0.808V3.576L11.132,23.572
		C9.728,24.187,8.777,25.518,8.651,27.045z"/>
</g>
</svg>
